{"title":"The Fifth Dimension - Up-Up And Away Disc 2 WAV","uid":4751055,"size":788548920,"categoryP":"audio","categoryS":"music","magnet":"?xt=urn:btih:9fea39f4c92195cccc19613af83524caac1cc731&amp;dn=The+Fifth+Dimension+-+Up-Up+And+Away+Disc+2+WAV&amp;tr=udp%3A%2F%2Ftracker.openbittorrent.com%3A80&amp;tr=udp%3A%2F%2Fopen.demonii.com%3A1337&amp;tr=udp%3A%2F%2Ftracker.coppersurfer.tk%3A6969&amp;tr=udp%3A%2F%2Fexodus.desync.com%3A6969","seeders":5,"leechers":0,"uploader":"someone2008","files":20,"time":1236188126,"description":"REM GENRE Pop\nREM DATE 1997\nREM DISCID 1B117613\nREM COMMENT &quot;ExactAudioCopy v0.99pb3&quot;\nPERFORMER &quot;The 5th Dimension&quot;\nTITLE &quot;Up-Up and Away - The Definitive Collection 2&quot;\nFILE &quot;The 5th Dimension - Up-Up and Away - The Definitive Collection 2 - 01. One Less Bell to Answer.wav&quot; WAVE\n  TRACK 01 AUDIO\n    TITLE &quot;One Less Bell to Answer&quot;\n    PERFORMER &quot;The 5th Dimension&quot;\n    INDEX 01 00:00:00\n  TRACK 02 AUDIO\n    TITLE &quot;Pupper Man&quot;\n    PERFORMER &quot;The 5th Dimension&quot;\n    INDEX 00 03:28:10\nFILE &quot;The 5th Dimension - Up-Up and Away - The Definitive Collection 2 - 02. Pupper Man.wav&quot; WAVE\n    INDEX 01 00:00:00\n  TRACK 03 AUDIO\n    TITLE &quot;Save the Country&quot;\n    PERFORMER &quot;The 5th Dimension&quot;\n    INDEX 00 02:56:55\nFILE &quot;The 5th Dimension - Up-Up and Away - The Definitive Collection 2 - 03. Save the Country.wav&quot; WAVE\n    INDEX 01 00:00:00\n  TRACK 04 AUDIO\n    TITLE &quot;Medley: The Declaration, A Change Is Gonna Come, People Gotta Be Free&quot;\n    PERFORMER &quot;The 5th Dimension&quot;\n    INDEX 00 02:38:20\nFILE &quot;The 5th Dimension - Up-Up and Away - The Definitive Collection 2 - 04. Medley- The Declaration, A Change Is Gonna Come, People Gotta Be Free.wav&quot; WAVE\n    INDEX 01 00:00:00\n  TRACK 05 AUDIO\n    TITLE &quot;Dimension Five&quot;\n    PERFORMER &quot;The 5th Dimension&quot;\n    INDEX 00 10:07:34\nFILE &quot;The 5th Dimension - Up-Up and Away - The Definitive Collection 2 - 05. Dimension Five.wav&quot; WAVE\n    INDEX 01 00:00:00\n  TRACK 06 AUDIO\n    TITLE &quot;On the Beach&quot;\n    PERFORMER &quot;The 5th Dimension&quot;\n    INDEX 00 04:12:38\nFILE &quot;The 5th Dimension - Up-Up and Away - The Definitive Collection 2 - 06. On the Beach.wav&quot; WAVE\n    INDEX 01 00:00:00\n  TRACK 07 AUDIO\n    TITLE &quot;Loves Lines, Angles and Rhymes&quot;\n    PERFORMER &quot;The 5th Dimension&quot;\n    INDEX 00 03:28:32\nFILE &quot;The 5th Dimension - Up-Up and Away - The Definitive Collection 2 - 07. Loves Lines, Angles and Rhymes.wav&quot; WAVE\n    INDEX 01 00:00:00\n  TRACK 08 AUDIO\n    TITLE &quot;Light Sings&quot;\n    PERFORMER &quot;The 5th Dimension&quot;\n    INDEX 00 04:08:70\nFILE &quot;The 5th Dimension - Up-Up and Away - The Definitive Collection 2 - 08. Light Sings.wav&quot; WAVE\n    INDEX 01 00:00:00\n  TRACK 09 AUDIO\n    TITLE &quot;Time and Love&quot;\n    PERFORMER &quot;The 5th Dimension&quot;\n    INDEX 00 03:27:70\nFILE &quot;The 5th Dimension - Up-Up and Away - The Definitive Collection 2 - 09. Time and Love.wav&quot; WAVE\n    INDEX 01 00:00:00\n  TRACK 10 AUDIO\n    TITLE &quot;Never My Love&quot;\n    PERFORMER &quot;The 5th Dimension&quot;\n    INDEX 00 03:29:30\nFILE &quot;The 5th Dimension - Up-Up and Away - The Definitive Collection 2 - 10. Never My Love.wav&quot; WAVE\n    INDEX 01 00:00:00\n  TRACK 11 AUDIO\n    TITLE &quot;Together Let's Find Love&quot;\n    PERFORMER &quot;The 5th Dimension&quot;\n    INDEX 00 03:55:15\nFILE &quot;The 5th Dimension - Up-Up and Away - The Definitive Collection 2 - 11. Together Let's Find Love.wav&quot; WAVE\n    INDEX 01 00:00:00\n  TRACK 12 AUDIO\n    TITLE &quot;(Last Night) I Didn't Get to Sleep At All&quot;\n    PERFORMER &quot;The 5th Dimension&quot;\n    INDEX 00 03:35:65\nFILE &quot;The 5th Dimension - Up-Up and Away - The Definitive Collection 2 - 12. (Last Night) I Didn't Get to Sleep At All.wav&quot; WAVE\n    INDEX 01 00:00:00\n  TRACK 13 AUDIO\n    TITLE &quot;If I Could Reach You&quot;\n    PERFORMER &quot;The 5th Dimension&quot;\n    INDEX 00 03:09:57\nFILE &quot;The 5th Dimension - Up-Up and Away - The Definitive Collection 2 - 13. If I Could Reach You.wav&quot; WAVE\n    INDEX 01 00:00:00\n  TRACK 14 AUDIO\n    TITLE &quot;Black Patch&quot;\n    PERFORMER &quot;The 5th Dimension&quot;\n    INDEX 00 03:06:48\nFILE &quot;The 5th Dimension - Up-Up and Away - The Definitive Collection 2 - 14. Black Patch.wav&quot; WAVE\n    INDEX 01 00:00:00\n  TRACK 15 AUDIO\n    TITLE &quot;Living Together  Growing Together&quot;\n    PERFORMER &quot;The 5th Dimension&quot;\n    INDEX 00 04:26:13\nFILE &quot;The 5th Dimension - Up-Up and Away - The Definitive Collection 2 - 15. Living Together  Growing Together.wav&quot; WAVE\n    INDEX 01 00:00:00\n  TRACK 16 AUDIO\n    TITLE &quot;Everything's Been Changed&quot;\n    PERFORMER &quot;The 5th Dimension&quot;\n    INDEX 00 03:49:08\nFILE &quot;The 5th Dimension - Up-Up and Away - The Definitive Collection 2 - 16. Everything's Been Changed.wav&quot; WAVE\n    INDEX 01 00:00:00\n  TRACK 17 AUDIO\n    TITLE &quot;Ashes to Ashes&quot;\n    PERFORMER &quot;The 5th Dimension&quot;\n    INDEX 00 03:46:12\nFILE &quot;The 5th Dimension - Up-Up and Away - The Definitive Collection 2 - 17. Ashes to Ashes.wav&quot; WAVE\n    INDEX 01 00:00:00\n  TRACK 18 AUDIO\n    TITLE &quot;Flashback&quot;\n    PERFORMER &quot;The 5th Dimension&quot;\n    INDEX 00 03:28:25\nFILE &quot;The 5th Dimension - Up-Up and Away - The Definitive Collection 2 - 18. Flashback.wav&quot; WAVE\n    INDEX 01 00:00:00\n  TRACK 19 AUDIO\n    TITLE &quot;No Love in the Room&quot;\n    PERFORMER &quot;The 5th Dimension&quot;\n    INDEX 00 03:39:18\nFILE &quot;The 5th Dimension - Up-Up and Away - The Definitive Collection 2 - 19. No Love in the Room.wav&quot; WAVE\n    INDEX 01 00:00:00\n","torrent":{"xt":"urn:btih:9fea39f4c92195cccc19613af83524caac1cc731","amp;dn":"The+Fifth+Dimension+-+Up-Up+And+Away+Disc+2+WAV","amp;tr":["udp%3A%2F%2Ftracker.openbittorrent.com%3A80","udp%3A%2F%2Fopen.demonii.com%3A1337","udp%3A%2F%2Ftracker.coppersurfer.tk%3A6969","udp%3A%2F%2Fexodus.desync.com%3A6969"],"infoHash":"9fea39f4c92195cccc19613af83524caac1cc731","infoHashBuffer":{"type":"Buffer","data":[159,234,57,244,201,33,149,204,204,25,97,58,248,53,36,202,172,28,199,49]},"announce":[],"urlList":[]}}